<svg xmlns="http://www.w3.org/2000/svg" viewBox="0 0 400 250">
  <rect width="400" height="250" fill="#eef3f2"/>
  <g stroke="#14283a" stroke-opacity="0.1" stroke-width="1">
    <line x1="30" y1="62" x2="375" y2="62"/>
    <line x1="30" y1="125" x2="375" y2="125"/>
    <line x1="30" y1="188" x2="375" y2="188"/>
  </g>
  <!-- ensemble members -->
  <g fill="none" stroke="#14283a" stroke-opacity="0.3" stroke-width="1">
    <path d="M45,125 C110,118 180,95 240,80 C295,66 340,52 370,44"/>
    <path d="M45,125 C110,110 175,105 240,92 C300,80 345,74 370,66"/>
    <path d="M45,125 C105,122 180,112 245,104 C305,97 345,88 370,84"/>
    <path d="M45,125 C110,127 180,120 245,116 C300,113 345,104 370,100"/>
    <path d="M45,125 C105,130 175,128 240,124 C300,120 345,118 370,114"/>
    <path d="M45,125 C110,132 180,133 245,132 C300,131 345,128 370,128"/>
    <path d="M45,125 C105,128 180,138 240,142 C300,146 345,144 370,142"/>
    <path d="M45,125 C110,133 175,145 240,152 C300,158 345,156 370,156"/>
    <path d="M45,125 C105,135 180,152 245,162 C300,170 345,172 370,170"/>
    <path d="M45,125 C110,138 180,158 240,172 C295,184 345,188 370,186"/>
    <path d="M45,125 C110,140 180,168 240,184 C295,198 340,204 370,204"/>
  </g>
  <!-- ensemble mean -->
  <path d="M45,125 C110,128 180,128 245,130 C305,132 345,132 370,131"
        fill="none" stroke="#c42a6e" stroke-width="2.2"/>
  <circle cx="45" cy="125" r="3.5" fill="#14283a"/>
  <g font-family="IBM Plex Mono, monospace" font-size="10" fill="#5e7285">
    <text x="45" y="232">t0</text>
    <text x="330" y="232">+6 months</text>
  </g>
</svg>
