<svg xmlns="http://www.w3.org/2000/svg" viewBox="0 0 400 250">
  <rect width="400" height="250" fill="#eef3f2"/>
  <!-- pitch -->
  <g fill="none" stroke="#14283a" stroke-opacity="0.55" stroke-width="1.3">
    <rect x="75" y="45" width="250" height="160"/>
    <line x1="200" y1="45" x2="200" y2="205"/>
    <circle cx="200" cy="125" r="26"/>
    <rect x="75" y="85" width="38" height="80"/>
    <rect x="287" y="85" width="38" height="80"/>
  </g>
  <!-- isobars sweeping over the pitch -->
  <g fill="none" stroke="#5e7285" stroke-opacity="0.55" stroke-width="1">
    <path d="M10,60 C90,40 190,75 280,55 C330,44 370,50 395,42"/>
    <path d="M5,110 C95,90 185,120 285,100 C335,90 375,96 398,88"/>
    <path d="M8,165 C90,148 190,175 285,158 C335,148 372,155 396,146"/>
    <path d="M12,215 C95,200 190,225 288,210 C338,202 374,208 395,200"/>
  </g>
  <!-- rain hatching -->
  <g stroke="#c42a6e" stroke-opacity="0.75" stroke-width="1.3" stroke-linecap="round">
    <line x1="105" y1="60" x2="98" y2="74"/>
    <line x1="130" y1="95" x2="123" y2="109"/>
    <line x1="112" y1="135" x2="105" y2="149"/>
    <line x1="140" y1="170" x2="133" y2="184"/>
    <line x1="160" y1="65" x2="153" y2="79"/>
    <line x1="172" y1="120" x2="165" y2="134"/>
    <line x1="185" y1="175" x2="178" y2="189"/>
  </g>
</svg>
