<svg xmlns="http://www.w3.org/2000/svg" viewBox="0 0 400 250">
  <rect width="400" height="250" fill="#eef3f2"/>
  <g>
    <rect x="0" y="0" width="10" height="250" fill="#2c527c"/>
    <rect x="10" y="0" width="10" height="250" fill="#1d3a57"/>
    <rect x="20" y="0" width="10" height="250" fill="#3a6390"/>
    <rect x="30" y="0" width="10" height="250" fill="#24466a"/>
    <rect x="40" y="0" width="10" height="250" fill="#4f7aa3"/>
    <rect x="50" y="0" width="10" height="250" fill="#2c527c"/>
    <rect x="60" y="0" width="10" height="250" fill="#3a6390"/>
    <rect x="70" y="0" width="10" height="250" fill="#6b93b5"/>
    <rect x="80" y="0" width="10" height="250" fill="#24466a"/>
    <rect x="90" y="0" width="10" height="250" fill="#4f7aa3"/>
    <rect x="100" y="0" width="10" height="250" fill="#8fadc7"/>
    <rect x="110" y="0" width="10" height="250" fill="#3a6390"/>
    <rect x="120" y="0" width="10" height="250" fill="#6b93b5"/>
    <rect x="130" y="0" width="10" height="250" fill="#4f7aa3"/>
    <rect x="140" y="0" width="10" height="250" fill="#8fadc7"/>
    <rect x="150" y="0" width="10" height="250" fill="#6b93b5"/>
    <rect x="160" y="0" width="10" height="250" fill="#b3c8d8"/>
    <rect x="170" y="0" width="10" height="250" fill="#8fadc7"/>
    <rect x="180" y="0" width="10" height="250" fill="#6b93b5"/>
    <rect x="190" y="0" width="10" height="250" fill="#b3c8d8"/>
    <rect x="200" y="0" width="10" height="250" fill="#d3e4e6"/>
    <rect x="210" y="0" width="10" height="250" fill="#8fadc7"/>
    <rect x="220" y="0" width="10" height="250" fill="#e3d3dc"/>
    <rect x="230" y="0" width="10" height="250" fill="#b3c8d8"/>
    <rect x="240" y="0" width="10" height="250" fill="#dbb8c9"/>
    <rect x="250" y="0" width="10" height="250" fill="#d3e4e6"/>
    <rect x="260" y="0" width="10" height="250" fill="#d29ab4"/>
    <rect x="270" y="0" width="10" height="250" fill="#dbb8c9"/>
    <rect x="280" y="0" width="10" height="250" fill="#c87d9f"/>
    <rect x="290" y="0" width="10" height="250" fill="#d29ab4"/>
    <rect x="300" y="0" width="10" height="250" fill="#dbb8c9"/>
    <rect x="310" y="0" width="10" height="250" fill="#c05f8a"/>
    <rect x="320" y="0" width="10" height="250" fill="#c87d9f"/>
    <rect x="330" y="0" width="10" height="250" fill="#c42a6e"/>
    <rect x="340" y="0" width="10" height="250" fill="#c05f8a"/>
    <rect x="350" y="0" width="10" height="250" fill="#a81f5c"/>
    <rect x="360" y="0" width="10" height="250" fill="#c42a6e"/>
    <rect x="370" y="0" width="10" height="250" fill="#8f1a4e"/>
    <rect x="380" y="0" width="10" height="250" fill="#a81f5c"/>
    <rect x="390" y="0" width="10" height="250" fill="#8f1a4e"/>
  </g>
</svg>
