<svg xmlns="http://www.w3.org/2000/svg" viewBox="0 0 400 250">
  <rect width="400" height="250" fill="#eef3f2"/>
  <!-- polar graticule -->
  <g fill="none" stroke="#14283a" stroke-opacity="0.14" stroke-width="1">
    <circle cx="200" cy="125" r="100"/>
    <circle cx="200" cy="125" r="70"/>
    <circle cx="200" cy="125" r="40"/>
    <line x1="200" y1="25" x2="200" y2="225"/>
    <line x1="100" y1="125" x2="300" y2="125"/>
    <line x1="129" y1="54" x2="271" y2="196"/>
    <line x1="271" y1="54" x2="129" y2="196"/>
  </g>
  <!-- ice extent: past -->
  <path d="M200,40 C245,42 280,70 285,105 C290,140 270,180 235,192 C205,202 165,196 140,175 C115,154 112,115 125,85 C138,57 165,39 200,40 Z"
        fill="#d3e4e6" fill-opacity="0.7" stroke="#14283a" stroke-opacity="0.5" stroke-width="1.2"/>
  <!-- ice extent: present minimum -->
  <path d="M205,72 C235,76 255,95 257,118 C259,142 246,165 222,172 C200,178 172,172 158,155 C144,138 145,110 156,93 C167,77 183,69 205,72 Z"
        fill="none" stroke="#c42a6e" stroke-width="1.8" stroke-dasharray="6 5"/>
  <g font-family="IBM Plex Mono, monospace" font-size="10" fill="#5e7285">
    <text x="310" y="52">1980s</text>
    <text x="262" y="180" fill="#c42a6e">now</text>
  </g>
</svg>
